<?xml version="1.0" encoding="UTF-8" standalone="no"?>
<svg
   xmlns:dc="http://purl.org/dc/elements/1.1/"
   xmlns:cc="http://creativecommons.org/ns#"
   xmlns:rdf="http://www.w3.org/1999/02/22-rdf-syntax-ns#"
   xmlns:svg="http://www.w3.org/2000/svg"
   xmlns="http://www.w3.org/2000/svg"
   xmlns:sodipodi="http://sodipodi.sourceforge.net/DTD/sodipodi-0.dtd"
   xmlns:inkscape="http://www.inkscape.org/namespaces/inkscape"
   width="53.901993mm"
   height="53.062725mm"
   viewBox="0 0 53.901993 53.062725"
   version="1.1"
   id="svg50"
   inkscape:version="1.0.1 (0767f8302a, 2020-10-17)"
   sodipodi:docname="lilie.svg">
  <defs
     id="defs44" />
  <sodipodi:namedview
     id="base"
     pagecolor="#ffffff"
     bordercolor="#666666"
     borderopacity="1.0"
     inkscape:pageopacity="0.0"
     inkscape:pageshadow="2"
     inkscape:zoom="0.98994949"
     inkscape:cx="60.742908"
     inkscape:cy="170.74132"
     inkscape:document-units="mm"
     inkscape:current-layer="layer1"
     inkscape:document-rotation="0"
     showgrid="false"
     inkscape:window-width="1445"
     inkscape:window-height="1016"
     inkscape:window-x="0"
     inkscape:window-y="0"
     inkscape:window-maximized="0" />
  <metadata
     id="metadata47">
    <rdf:RDF>
      <cc:Work
         rdf:about="">
        <dc:format>image/svg+xml</dc:format>
        <dc:type
           rdf:resource="http://purl.org/dc/dcmitype/StillImage" />
        <dc:title></dc:title>
      </cc:Work>
    </rdf:RDF>
  </metadata>
  <g
     inkscape:label="Ebene 1"
     inkscape:groupmode="layer"
     id="layer1"
     transform="translate(-86.441691,-84.593476)">
    <g
       id="g12"
       transform="matrix(0.01244441,0,0,-0.01244441,86.441696,137.6562)"
       style="display:inline;opacity:1;fill:#999999;fill-opacity:1;stroke:none;stroke-width:42.5224;stroke-miterlimit:4;stroke-dasharray:none">
      <g
         id="g62"
         style="fill:#999999;fill-opacity:1;stroke:none;stroke-width:42.5224;stroke-miterlimit:4;stroke-dasharray:none">
        <path
           d="m 2166.5,4263.75 c 31.89,0 351.98,8.8 483.29,-82.31 129.89,-90.23 37.18,-445.75 22.27,-460.89 -43.64,-44.29 917.71,-17.57 936.31,-20.26 18.6,-2.63 414.93,-416.63 372.66,-435.38 -162.31,-72.11 -1299.87,-114.57 -1329.1,-130.49 -29.19,-15.96 -85.73,-666.54 -85.73,-709.97 0,-39.63 835.23,602.24 1260.63,621.61 290.95,13.23 403.03,-285.21 426.04,-368.63 25.65,-93.18 99.68,-339.52 72.74,-725.3 -12.64,-180.94 -135.23,-891.78 -512.69,-1200.919 -98.18,-80.34 -308.03,-177.949 -465,-85.031 -134.47,79.652 -716.1,547.43 -698.13,549.38 101.06,10.85 268.29,-50.64 347.46,3.31 119.94,81.6 128.81,606.12 146.15,786.41 2.88,30.17 -398.49,-101.03 -470.21,-151.49 -71.74,-50.46 -164.08,-151.14 -188.22,-241.38 -25.43,-95.25 20.59,-238.11 -20.38,-238.11 h -596.18 c -40.97,0 5.03,142.86 -20.37,238.11 -24.11,90.24 -116.45,190.92 -188.17,241.38 -71.74,50.46 -473.15,181.66 -470.23,151.49 17.4,-180.29 26.19,-704.81 146.09,-786.41 79.28,-53.95 246.48,7.54 347.51,-3.31 18.03,-1.95 -563.69,-469.728 -698.146,-549.38 C 828.203,573.262 618.316,670.871 520.176,751.211 142.715,1060.35 20.082,1771.19 7.39844,1952.13 c -26.88674,385.78 24.71486,574 71.17186,725.3 25.7147,83.71 136.6837,381.86 427.6017,368.63 425.492,-19.37 1260.648,-661.24 1260.648,-621.61 0,43.43 -56.46,694.01 -85.69,709.97 -29.2,15.92 -1166.814,58.38 -1329.153,130.49 -42.258,18.75 354.113,432.75 372.773,435.38 18.594,2.69 979.86,-24.03 936.32,20.26 -14.94,15.14 -107.69,370.66 22.17,460.89 131.26,91.11 451.4,82.31 483.26,82.31 v 0"
           style="fill:#999999;fill-opacity:1;fill-rule:evenodd;stroke:none;stroke-width:42.5224;stroke-miterlimit:4;stroke-dasharray:none"
           id="path14" />
        <path
           d="m 2166.5,1256.35 c 0,0 -34.8,1.03 275.44,1.15 57.94,0 670.8,-922.531 723.71,-993.039 22.52,-29.941 -163.83,-99.539 -220.37,-97.031 -102.35,4.679 -373.03,267.32 -405.52,299.781 -32.54,32.578 49.72,-390.8594 26.44,-418.7501 C 2543.02,20.582 2166.5,0 2166.5,0 c 0,0 -376.37,20.582 -399.68,48.4609 -23.24,27.8907 59,451.3281 26.48,418.7501 -32.55,-32.461 -303.26,-295.102 -405.55,-299.781 -56.49,-2.508 -242.88,67.09 -220.4,97.031 52.91,70.508 664.95,993.949 722.92,993.039 276.23,0 276.23,-1.15 276.23,-1.15 v 0"
           style="fill:#999999;fill-opacity:1;fill-rule:evenodd;stroke:none;stroke-width:42.5224;stroke-miterlimit:4;stroke-dasharray:none"
           id="path16" />
      </g>
    </g>
  </g>
</svg>
