<?xml version="1.0" encoding="UTF-8" standalone="no"?>
<svg
   xmlns:dc="http://purl.org/dc/elements/1.1/"
   xmlns:cc="http://creativecommons.org/ns#"
   xmlns:rdf="http://www.w3.org/1999/02/22-rdf-syntax-ns#"
   xmlns:svg="http://www.w3.org/2000/svg"
   xmlns="http://www.w3.org/2000/svg"
   xmlns:sodipodi="http://sodipodi.sourceforge.net/DTD/sodipodi-0.dtd"
   xmlns:inkscape="http://www.inkscape.org/namespaces/inkscape"
   version="1.1"
   id="svg10"
   width="325"
   height="325"
   viewBox="0 0 325 325"
   sodipodi:docname="logo.svg"
   inkscape:version="1.0.1 (0767f8302a, 2020-10-17)"
   inkscape:export-filename="C:\Users\domin\Desktop\dpsgos_logo\logo dpsg-os-modern\dpsg-osnabrueck-logo-redesign-klassisch-wappen-png.png"
   inkscape:export-xdpi="96"
   inkscape:export-ydpi="96">
  <metadata
     id="metadata16">
    <rdf:RDF>
      <cc:Work
         rdf:about="">
        <dc:format>image/svg+xml</dc:format>
        <dc:type
           rdf:resource="http://purl.org/dc/dcmitype/StillImage" />
        <dc:title></dc:title>
      </cc:Work>
    </rdf:RDF>
  </metadata>
  <defs
     id="defs14">
    <rect
       x="68.235802"
       y="26.162951"
       width="415.42523"
       height="44.194176"
       id="rect1233" />
    <rect
       x="68.235802"
       y="26.162951"
       width="415.42523"
       height="44.194176"
       id="rect926" />
  </defs>
  <sodipodi:namedview
     pagecolor="#ffffff"
     bordercolor="#666666"
     borderopacity="1"
     objecttolerance="10"
     gridtolerance="10"
     guidetolerance="10"
     inkscape:pageopacity="0"
     inkscape:pageshadow="2"
     inkscape:window-width="1920"
     inkscape:window-height="1016"
     id="namedview12"
     showgrid="false"
     inkscape:zoom="0.99999999"
     inkscape:cx="-87.053582"
     inkscape:cy="185.39471"
     inkscape:window-x="0"
     inkscape:window-y="0"
     inkscape:window-maximized="1"
     inkscape:current-layer="layer2"
     showguides="true"
     inkscape:guide-bbox="true"
     inkscape:document-rotation="0" />
  <g
     inkscape:groupmode="layer"
     id="layer2"
     inkscape:label="Bildmarke"
     style="display:inline"
     transform="translate(-87.5,-87.499986)">
    <g
       inkscape:groupmode="layer"
       id="layer1"
       inkscape:label="Lilie"
       style="display:inline">
      <g
         id="g12"
         transform="matrix(0.0304187,0,0,-0.0304187,184.12189,314.8524)"
         style="opacity:1;fill:#ffffff;fill-opacity:1;stroke:none;stroke-width:42.5224;stroke-miterlimit:4;stroke-dasharray:none">
        <g
           id="g62"
           style="fill:#ffffff;fill-opacity:1;stroke:none;stroke-width:42.5224;stroke-miterlimit:4;stroke-dasharray:none">
          <path
             d="m 2166.5,4263.75 c 31.89,0 351.98,8.8 483.29,-82.31 129.89,-90.23 37.18,-445.75 22.27,-460.89 -43.64,-44.29 917.71,-17.57 936.31,-20.26 18.6,-2.63 414.93,-416.63 372.66,-435.38 -162.31,-72.11 -1299.87,-114.57 -1329.1,-130.49 -29.19,-15.96 -85.73,-666.54 -85.73,-709.97 0,-39.63 835.23,602.24 1260.63,621.61 290.95,13.23 403.03,-285.21 426.04,-368.63 25.65,-93.18 99.68,-339.52 72.74,-725.3 -12.64,-180.94 -135.23,-891.78 -512.69,-1200.919 -98.18,-80.34 -308.03,-177.949 -465,-85.031 -134.47,79.652 -716.1,547.43 -698.13,549.38 101.06,10.85 268.29,-50.64 347.46,3.31 119.94,81.6 128.81,606.12 146.15,786.41 2.88,30.17 -398.49,-101.03 -470.21,-151.49 -71.74,-50.46 -164.08,-151.14 -188.22,-241.38 -25.43,-95.25 20.59,-238.11 -20.38,-238.11 h -596.18 c -40.97,0 5.03,142.86 -20.37,238.11 -24.11,90.24 -116.45,190.92 -188.17,241.38 -71.74,50.46 -473.15,181.66 -470.23,151.49 17.4,-180.29 26.19,-704.81 146.09,-786.41 79.28,-53.95 246.48,7.54 347.51,-3.31 18.03,-1.95 -563.69,-469.728 -698.146,-549.38 C 828.203,573.262 618.316,670.871 520.176,751.211 142.715,1060.35 20.082,1771.19 7.39844,1952.13 c -26.88674,385.78 24.71486,574 71.17186,725.3 25.7147,83.71 136.6837,381.86 427.6017,368.63 425.492,-19.37 1260.648,-661.24 1260.648,-621.61 0,43.43 -56.46,694.01 -85.69,709.97 -29.2,15.92 -1166.814,58.38 -1329.153,130.49 -42.258,18.75 354.113,432.75 372.773,435.38 18.594,2.69 979.86,-24.03 936.32,20.26 -14.94,15.14 -107.69,370.66 22.17,460.89 131.26,91.11 451.4,82.31 483.26,82.31 v 0"
             style="fill:#ffffff;fill-opacity:1;fill-rule:evenodd;stroke:none;stroke-width:42.5224;stroke-miterlimit:4;stroke-dasharray:none"
             id="path14" />
          <path
             d="m 2166.5,1256.35 c 0,0 -34.8,1.03 275.44,1.15 57.94,0 670.8,-922.531 723.71,-993.039 22.52,-29.941 -163.83,-99.539 -220.37,-97.031 -102.35,4.679 -373.03,267.32 -405.52,299.781 -32.54,32.578 49.72,-390.8594 26.44,-418.7501 C 2543.02,20.582 2166.5,0 2166.5,0 c 0,0 -376.37,20.582 -399.68,48.4609 -23.24,27.8907 59,451.3281 26.48,418.7501 -32.55,-32.461 -303.26,-295.102 -405.55,-299.781 -56.49,-2.508 -242.88,67.09 -220.4,97.031 52.91,70.508 664.95,993.949 722.92,993.039 276.23,0 276.23,-1.15 276.23,-1.15 v 0"
             style="fill:#ffffff;fill-opacity:1;fill-rule:evenodd;stroke:none;stroke-width:42.5224;stroke-miterlimit:4;stroke-dasharray:none"
             id="path16" />
        </g>
      </g>
    </g>
    <g
       inkscape:groupmode="layer"
       id="layer12"
       inkscape:label="Rad"
       style="display:inline">
      <g
         id="g1205"
         style="fill:#ffffff">
        <path
           id="path870"
           style="display:inline;fill:#ffffff;fill-opacity:1;stroke-width:1.25579"
           d="M 249.86719,87.5 A 162.5,162.5 0 0 0 87.5,250 162.5,162.5 0 0 0 250,412.5 162.5,162.5 0 0 0 412.5,250 162.5,162.5 0 0 0 250,87.5 a 162.5,162.5 0 0 0 -0.13281,0 z m -0.15235,12.123047 a 6,6 0 0 1 6,6.000003 6,6 0 0 1 -6,6 6,6 0 0 1 -6,-6 6,6 0 0 1 6,-6.000003 z M 249.90625,123.5 a 126.5,126.5 0 0 1 0.002,0 126.5,126.5 0 0 1 0.0918,0 A 126.5,126.5 0 0 1 376.5,250 126.5,126.5 0 0 1 250,376.5 126.5,126.5 0 0 1 123.5,250 126.5,126.5 0 0 1 249.90625,123.5 Z m 125.125,48.2793 a 6,6 0 0 1 6,6 6,6 0 0 1 -6,6 6,6 0 0 1 -6,-6 6,6 0 0 1 6,-6 z m -250.08398,0.0547 a 6,6 0 0 1 6,6 6,6 0 0 1 -6,6 6,6 0 0 1 -6,-6 6,6 0 0 1 6,-6 z m 250.20507,144.20508 a 6,6 0 0 1 6,6 6,6 0 0 1 -6,6 6,6 0 0 1 -6,-6 6,6 0 0 1 6,-6 z m -250.1289,0.27735 a 6,6 0 0 1 6,6 6,6 0 0 1 -6,6 6,6 0 0 1 -6,-6 6,6 0 0 1 6,-6 z M 250,388.36523 a 6,6 0 0 1 6,6 6,6 0 0 1 -6,6 6,6 0 0 1 -6,-6 6,6 0 0 1 6,-6 z" />
        <path
           id="path890"
           style="display:inline;fill:#ffffff;fill-opacity:1;stroke-width:1.62045"
           d="m 249.99999,167.49999 a 82.5,82.5 0 0 0 -82.5,82.50001 82.5,82.5 0 0 0 82.5,82.5 A 82.5,82.5 0 0 0 332.5,250 82.5,82.5 0 0 0 249.99999,167.49999 Z m -0.0391,10 a 72.5,72.5 0 0 1 0.0391,0 A 72.5,72.5 0 0 1 322.5,250 a 72.5,72.5 0 0 1 -72.50001,72.5 72.5,72.5 0 0 1 -72.5,-72.5 72.5,72.5 0 0 1 72.46094,-72.50001 z" />
        <path
           id="use9"
           style="fill:#ffffff;fill-opacity:1;stroke-width:0.568707"
           d="m 242.04297,122.05077 c -0.70786,5.42873 -2.16688,10.20203 -5.12305,13.1582 7.96191,10.80545 9.66797,21.61056 9.66797,32.41602 h 6.82422 c 0,-10.80546 1.70607,-21.61057 9.66797,-32.41602 -2.95616,-2.95616 -4.52273,-7.72948 -5.35156,-13.1582 z" />
        <path
           id="use9-3"
           style="display:inline;fill:#ffffff;fill-opacity:1;stroke-width:0.568707"
           d="m 257.95703,377.94141 c 0.70786,-5.42873 2.16688,-10.20203 5.12305,-13.1582 -7.96191,-10.80545 -9.66797,-21.61056 -9.66797,-32.41602 h -6.82422 c 0,10.80546 -1.70607,21.61057 -9.66797,32.41602 2.95616,2.95616 4.52273,7.72948 5.35156,13.1582 z" />
        <path
           id="use9-3-8"
           style="display:inline;fill:#ffffff;fill-opacity:1;stroke-width:0.568707"
           d="m 356.86983,179.14049 c -5.05535,2.10135 -9.91865,3.22444 -13.95686,2.14241 -5.37684,12.29794 -13.88131,19.17799 -23.23911,24.58072 l 3.41212,5.90995 c 9.35779,-5.40274 19.56834,-9.3278 32.90708,-7.8353 1.08203,-4.03819 4.43251,-7.78156 8.71955,-11.21369 z" />
        <path
           id="use9-3-8-9"
           style="display:inline;fill:#ffffff;fill-opacity:1;stroke-width:0.568707"
           d="m 143.2028,320.92517 c 5.05535,-2.10136 9.91865,-3.22444 13.95686,-2.1424 5.37685,-12.29795 13.88131,-19.178 23.23911,-24.58073 l -3.41211,-5.90996 c -9.3578,5.40274 -19.56835,9.3278 -32.90709,7.8353 -1.08203,4.03819 -4.43252,7.78155 -8.71955,11.21369 z" />
        <path
           id="use9-3-8-9-5"
           style="display:inline;fill:#ffffff;fill-opacity:1;stroke-width:0.568707"
           d="m 135.21791,192.83446 c 4.3475,3.32738 7.75177,6.97759 8.8338,11.0158 13.33876,-1.49249 23.54929,2.43257 32.90709,7.83529 l 3.41212,-5.90995 c -9.35781,-5.40272 -17.86229,-12.28279 -23.23911,-24.58073 -4.03819,1.08203 -8.95528,0.0521 -14.07112,-1.9445 z" />
        <path
           id="use9-3-8-9-5-3"
           style="display:inline;fill:#ffffff;fill-opacity:1;stroke-width:0.568707"
           d="m 364.82824,307.04405 c -4.3475,-3.32738 -7.75177,-6.97759 -8.8338,-11.01581 -13.33876,1.49249 -23.54929,-2.43256 -32.90709,-7.83528 l -3.41212,5.90994 c 9.35781,5.40272 17.8623,12.28279 23.23911,24.58074 4.03819,-1.08203 8.95528,-0.0521 14.07112,1.9445 z" />
      </g>
    </g>
  </g>
</svg>
