<?xml version="1.0" encoding="UTF-8" standalone="no"?>
<svg
   xmlns:dc="http://purl.org/dc/elements/1.1/"
   xmlns:cc="http://creativecommons.org/ns#"
   xmlns:rdf="http://www.w3.org/1999/02/22-rdf-syntax-ns#"
   xmlns:svg="http://www.w3.org/2000/svg"
   xmlns="http://www.w3.org/2000/svg"
   version="1.1"
   id="svg10"
   width="327.96094"
   height="327.961"
   viewBox="0 0 327.96094 327.961">
  <metadata
     id="metadata16">
    <rdf:RDF>
      <cc:Work
         rdf:about="">
        <dc:format>image/svg+xml</dc:format>
        <dc:type
           rdf:resource="http://purl.org/dc/dcmitype/StillImage" />
        <dc:title></dc:title>
      </cc:Work>
    </rdf:RDF>
  </metadata>
  <defs
     id="defs14">
    <rect
       x="68.235802"
       y="26.162951"
       width="415.42523"
       height="44.194176"
       id="rect1233" />
  </defs>
  <g
     id="layer12"
     style="display:inline"
     transform="translate(-86.019531,-86.019475)">
    <g
       id="layer6"
       style="display:inline">
      <path
         id="rect964"
         style="fill:#ffffff;fill-opacity:1;paint-order:normal"
         d="M 163.70898 0 A 163.98096 163.98096 0 0 0 0 163.98047 A 163.98096 163.98096 0 0 0 163.98047 327.96094 A 163.98096 163.98096 0 0 0 327.96094 163.98047 A 163.98096 163.98096 0 0 0 163.98047 0 A 163.98096 163.98096 0 0 0 163.70898 0 z M 163.96875 12.744141 A 5 5 0 0 1 168.96875 17.744141 A 5 5 0 0 1 163.96875 22.744141 A 5 5 0 0 1 158.96875 17.744141 A 5 5 0 0 1 163.96875 12.744141 z M 153.64062 38.238281 L 153.64062 55.712891 A 108.76123 108.76123 0 0 1 163.98047 55.21875 A 108.76123 108.76123 0 0 1 174.57812 55.738281 L 174.57812 38.259766 A 126.65902 126.65902 0 0 1 267.88867 92.050781 L 252.57422 100.89258 A 108.76123 108.76123 0 0 1 262.91406 118.80078 L 278.28906 109.92383 A 126.65902 126.65902 0 0 1 290.63867 164.47461 A 126.65902 126.65902 0 0 1 278.65625 218.24805 L 262.91406 209.16016 A 108.76123 108.76123 0 0 1 252.57422 227.06836 L 268.37891 236.19336 A 126.65902 126.65902 0 0 1 174.57812 290.68945 L 174.57812 272.22266 A 108.76123 108.76123 0 0 1 163.98047 272.74219 A 108.76123 108.76123 0 0 1 153.64062 272.24805 L 153.64062 290.71094 A 126.65902 126.65902 0 0 1 59.583984 236.19336 L 75.386719 227.07031 A 108.76123 108.76123 0 0 1 65.046875 209.16016 L 49.304688 218.24805 A 126.65902 126.65902 0 0 1 37.322266 164.47461 A 126.65902 126.65902 0 0 1 49.671875 109.92383 L 65.046875 118.80078 A 108.76123 108.76123 0 0 1 75.388672 100.89258 L 60.072266 92.050781 A 126.65902 126.65902 0 0 1 153.64062 38.238281 z M 37.033203 85.660156 A 5 5 0 0 1 42.033203 90.660156 A 5 5 0 0 1 37.033203 95.660156 A 5 5 0 0 1 32.033203 90.660156 A 5 5 0 0 1 37.033203 85.660156 z M 290.32617 85.949219 A 5 5 0 0 1 295.32617 90.949219 A 5 5 0 0 1 290.32617 95.949219 A 5 5 0 0 1 285.32617 90.949219 A 5 5 0 0 1 290.32617 85.949219 z M 290.64648 231.94531 A 5 5 0 0 1 295.64648 236.94531 A 5 5 0 0 1 290.64648 241.94531 A 5 5 0 0 1 285.64648 236.94531 A 5 5 0 0 1 290.64648 231.94531 z M 36.835938 231.94922 A 5 5 0 0 1 41.835938 236.94922 A 5 5 0 0 1 36.835938 241.94922 A 5 5 0 0 1 31.835938 236.94922 A 5 5 0 0 1 36.835938 231.94922 z M 164.16602 304.95117 A 5 5 0 0 1 169.16602 309.95117 A 5 5 0 0 1 164.16602 314.95117 A 5 5 0 0 1 159.16602 309.95117 A 5 5 0 0 1 164.16602 304.95117 z "
         transform="translate(86.019531,86.019475)" />
    </g>
    <g
       id="layer1"
       style="display:inline">
      <g
         id="g12"
         transform="matrix(0.047034,0,0,-0.047034,148.13732,350.27543)"
         style="opacity:1;fill:#ffffff;fill-opacity:1;stroke:#ffffff;stroke-width:65.9098;stroke-miterlimit:4;stroke-dasharray:none">
        <g
           id="g62"
           style="fill:#ffffff;fill-opacity:1;stroke:#ffffff;stroke-width:65.9098;stroke-miterlimit:4;stroke-dasharray:none">
          <path
             d="m 2166.5,4263.75 c 31.89,0 351.98,8.8 483.29,-82.31 129.89,-90.23 37.18,-445.75 22.27,-460.89 -43.64,-44.29 917.71,-17.57 936.31,-20.26 18.6,-2.63 414.93,-416.63 372.66,-435.38 -162.31,-72.11 -1299.87,-114.57 -1329.1,-130.49 -29.19,-15.96 -85.73,-666.54 -85.73,-709.97 0,-39.63 835.23,602.24 1260.63,621.61 290.95,13.23 403.03,-285.21 426.04,-368.63 25.65,-93.18 99.68,-339.52 72.74,-725.3 -12.64,-180.94 -135.23,-891.78 -512.69,-1200.919 -98.18,-80.34 -308.03,-177.949 -465,-85.031 -134.47,79.652 -716.1,547.43 -698.13,549.38 101.06,10.85 268.29,-50.64 347.46,3.31 119.94,81.6 128.81,606.12 146.15,786.41 2.88,30.17 -398.49,-101.03 -470.21,-151.49 -71.74,-50.46 -164.08,-151.14 -188.22,-241.38 -25.43,-95.25 20.59,-238.11 -20.38,-238.11 h -596.18 c -40.97,0 5.03,142.86 -20.37,238.11 -24.11,90.24 -116.45,190.92 -188.17,241.38 -71.74,50.46 -473.15,181.66 -470.23,151.49 17.4,-180.29 26.19,-704.81 146.09,-786.41 79.28,-53.95 246.48,7.54 347.51,-3.31 18.03,-1.95 -563.69,-469.728 -698.146,-549.38 C 828.203,573.262 618.316,670.871 520.176,751.211 142.715,1060.35 20.082,1771.19 7.39844,1952.13 c -26.88674,385.78 24.71486,574 71.17186,725.3 25.7147,83.71 136.6837,381.86 427.6017,368.63 425.492,-19.37 1260.648,-661.24 1260.648,-621.61 0,43.43 -56.46,694.01 -85.69,709.97 -29.2,15.92 -1166.814,58.38 -1329.153,130.49 -42.258,18.75 354.113,432.75 372.773,435.38 18.594,2.69 979.86,-24.03 936.32,20.26 -14.94,15.14 -107.69,370.66 22.17,460.89 131.26,91.11 451.4,82.31 483.26,82.31 v 0"
             style="fill:#ffffff;fill-opacity:1;fill-rule:evenodd;stroke:#ffffff;stroke-width:65.9098;stroke-miterlimit:4;stroke-dasharray:none"
             id="path14" />
          <path
             d="m 2166.5,1256.35 c 0,0 -34.8,1.03 275.44,1.15 57.94,0 670.8,-922.531 723.71,-993.039 22.52,-29.941 -163.83,-99.539 -220.37,-97.031 -102.35,4.679 -373.03,267.32 -405.52,299.781 -32.54,32.578 49.72,-390.8594 26.44,-418.7501 C 2543.02,20.582 2166.5,0 2166.5,0 c 0,0 -376.37,20.582 -399.68,48.4609 -23.24,27.8907 59,451.3281 26.48,418.7501 -32.55,-32.461 -303.26,-295.102 -405.55,-299.781 -56.49,-2.508 -242.88,67.09 -220.4,97.031 52.91,70.508 664.95,993.949 722.92,993.039 276.23,0 276.23,-1.15 276.23,-1.15 v 0"
             style="fill:#ffffff;fill-opacity:1;fill-rule:evenodd;stroke:#ffffff;stroke-width:65.9098;stroke-miterlimit:4;stroke-dasharray:none"
             id="path16" />
        </g>
      </g>
    </g>
  </g>
</svg>
