<?xml version="1.0" encoding="UTF-8" standalone="no"?>
<svg
   xmlns:dc="http://purl.org/dc/elements/1.1/"
   xmlns:cc="http://creativecommons.org/ns#"
   xmlns:rdf="http://www.w3.org/1999/02/22-rdf-syntax-ns#"
   xmlns:svg="http://www.w3.org/2000/svg"
   xmlns="http://www.w3.org/2000/svg"
   xmlns:sodipodi="http://sodipodi.sourceforge.net/DTD/sodipodi-0.dtd"
   xmlns:inkscape="http://www.inkscape.org/namespaces/inkscape"
   version="1.1"
   id="svg10"
   width="330"
   height="330"
   viewBox="0 0 330 330"
   sodipodi:docname="favicon.svg"
   inkscape:version="1.0.1 (0767f8302a, 2020-10-17)"
   inkscape:export-filename="/home/dniemann/Schreibtisch/dpsg-favicon.png"
   inkscape:export-xdpi="290.91"
   inkscape:export-ydpi="290.91">
  <sodipodi:namedview
     pagecolor="#ffffff"
     bordercolor="#666666"
     borderopacity="1"
     objecttolerance="10"
     gridtolerance="10"
     guidetolerance="10"
     inkscape:pageopacity="0"
     inkscape:pageshadow="2"
     inkscape:window-width="1920"
     inkscape:window-height="1016"
     id="namedview904"
     showgrid="false"
     inkscape:zoom="1.4553473"
     inkscape:cx="137.00008"
     inkscape:cy="151.40625"
     inkscape:window-x="0"
     inkscape:window-y="0"
     inkscape:window-maximized="1"
     inkscape:current-layer="layer4" />
  <metadata
     id="metadata16">
    <rdf:RDF>
      <cc:Work
         rdf:about="">
        <dc:format>image/svg+xml</dc:format>
        <dc:type
           rdf:resource="http://purl.org/dc/dcmitype/StillImage" />
        <dc:title></dc:title>
      </cc:Work>
    </rdf:RDF>
  </metadata>
  <defs
     id="defs14">
    <rect
       x="68.235802"
       y="26.162951"
       width="415.42523"
       height="44.194176"
       id="rect1233" />
  </defs>
  <g
     inkscape:groupmode="layer"
     id="layer3"
     inkscape:label="Layer 2"
     style="display:inline"
     sodipodi:insensitive="true">
    <path
       id="rect924"
       style="fill:#003056;fill-opacity:1;stroke-width:2.76915"
       d="M 44.826172,0 A 45,45 0 0 0 0,45 V 285.17383 A 45,45 0 0 0 45,330 H 285.17383 A 45,45 0 0 0 330,285 V 44.826172 A 45,45 0 0 0 285,0 Z" />
  </g>
  <g
     inkscape:groupmode="layer"
     id="layer4"
     inkscape:label="Layer 3"
     style="display:inline">
    <g
       id="layer12"
       style="display:inline;fill:#ffffff"
       transform="matrix(0.86908996,0,0,0.86908996,-52.272492,-52.272419)">
      <g
         id="layer6"
         style="display:inline;fill:#ffffff">
        <path
           id="rect964"
           style="fill:#ffffff;fill-opacity:1;paint-order:normal"
           d="M 163.70898,0 A 163.98096,163.98096 0 0 0 0,163.98047 163.98096,163.98096 0 0 0 163.98047,327.96094 163.98096,163.98096 0 0 0 327.96094,163.98047 163.98096,163.98096 0 0 0 163.98047,0 163.98096,163.98096 0 0 0 163.70898,0 Z m 0.25977,12.744141 a 5,5 0 0 1 5,5 5,5 0 0 1 -5,5 5,5 0 0 1 -5,-5 5,5 0 0 1 5,-5 z m -10.32813,25.49414 v 17.47461 a 108.76123,108.76123 0 0 1 10.33985,-0.494141 108.76123,108.76123 0 0 1 10.59765,0.519531 V 38.259766 a 126.65902,126.65902 0 0 1 93.31055,53.791015 l -15.31445,8.841799 a 108.76123,108.76123 0 0 1 10.33984,17.9082 l 15.375,-8.87695 a 126.65902,126.65902 0 0 1 12.34961,54.55078 126.65902,126.65902 0 0 1 -11.98242,53.77344 l -15.74219,-9.08789 a 108.76123,108.76123 0 0 1 -10.33984,17.9082 l 15.80469,9.125 a 126.65902,126.65902 0 0 1 -93.80079,54.49609 v -18.46679 a 108.76123,108.76123 0 0 1 -10.59765,0.51953 108.76123,108.76123 0 0 1 -10.33985,-0.49414 v 18.46289 A 126.65902,126.65902 0 0 1 59.583984,236.19336 l 15.802735,-9.12305 A 108.76123,108.76123 0 0 1 65.046875,209.16016 l -15.742187,9.08789 A 126.65902,126.65902 0 0 1 37.322266,164.47461 126.65902,126.65902 0 0 1 49.671875,109.92383 l 15.375,8.87695 a 108.76123,108.76123 0 0 1 10.341797,-17.9082 L 60.072266,92.050781 a 126.65902,126.65902 0 0 1 93.568354,-53.8125 z M 37.033203,85.660156 a 5,5 0 0 1 5,5 5,5 0 0 1 -5,5 5,5 0 0 1 -5,-5 5,5 0 0 1 5,-5 z m 253.292967,0.289063 a 5,5 0 0 1 5,5 5,5 0 0 1 -5,5 5,5 0 0 1 -5,-5 5,5 0 0 1 5,-5 z m 0.32031,145.996091 a 5,5 0 0 1 5,5 5,5 0 0 1 -5,5 5,5 0 0 1 -5,-5 5,5 0 0 1 5,-5 z m -253.810542,0.004 a 5,5 0 0 1 5,5 5,5 0 0 1 -5,5 5,5 0 0 1 -5,-5 5,5 0 0 1 5,-5 z m 127.330082,73.00195 a 5,5 0 0 1 5,5 5,5 0 0 1 -5,5 5,5 0 0 1 -5,-5 5,5 0 0 1 5,-5 z"
           transform="translate(86.019531,86.019475)" />
      </g>
      <g
         id="layer1"
         style="display:inline;fill:#ffffff">
        <g
           id="g12"
           transform="matrix(0.047034,0,0,-0.047034,148.13732,350.27543)"
           style="opacity:1;fill:#ffffff;fill-opacity:1;stroke:#ffffff;stroke-width:65.9098;stroke-miterlimit:4;stroke-dasharray:none">
          <g
             id="g62"
             style="fill:#ffffff;fill-opacity:1;stroke:#ffffff;stroke-width:65.9098;stroke-miterlimit:4;stroke-dasharray:none">
            <g
               id="g928"
               transform="matrix(0.85717519,0,0,0.85717519,309.3172,304.50111)"
               style="fill:#ffffff">
              <path
                 d="m 2166.5,4263.75 c 31.89,0 351.98,8.8 483.29,-82.31 129.89,-90.23 37.18,-445.75 22.27,-460.89 -43.64,-44.29 917.71,-17.57 936.31,-20.26 18.6,-2.63 414.93,-416.63 372.66,-435.38 -162.31,-72.11 -1299.87,-114.57 -1329.1,-130.49 -29.19,-15.96 -85.73,-666.54 -85.73,-709.97 0,-39.63 835.23,602.24 1260.63,621.61 290.95,13.23 403.03,-285.21 426.04,-368.63 25.65,-93.18 99.68,-339.52 72.74,-725.3 -12.64,-180.94 -135.23,-891.78 -512.69,-1200.919 -98.18,-80.34 -308.03,-177.949 -465,-85.031 -134.47,79.652 -716.1,547.43 -698.13,549.38 101.06,10.85 268.29,-50.64 347.46,3.31 119.94,81.6 128.81,606.12 146.15,786.41 2.88,30.17 -398.49,-101.03 -470.21,-151.49 -71.74,-50.46 -164.08,-151.14 -188.22,-241.38 -25.43,-95.25 20.59,-238.11 -20.38,-238.11 h -596.18 c -40.97,0 5.03,142.86 -20.37,238.11 -24.11,90.24 -116.45,190.92 -188.17,241.38 -71.74,50.46 -473.15,181.66 -470.23,151.49 17.4,-180.29 26.19,-704.81 146.09,-786.41 79.28,-53.95 246.48,7.54 347.51,-3.31 18.03,-1.95 -563.69,-469.728 -698.146,-549.38 C 828.203,573.262 618.316,670.871 520.176,751.211 142.715,1060.35 20.082,1771.19 7.39844,1952.13 c -26.88674,385.78 24.71486,574 71.17186,725.3 25.7147,83.71 136.6837,381.86 427.6017,368.63 425.492,-19.37 1260.648,-661.24 1260.648,-621.61 0,43.43 -56.46,694.01 -85.69,709.97 -29.2,15.92 -1166.814,58.38 -1329.153,130.49 -42.258,18.75 354.113,432.75 372.773,435.38 18.594,2.69 979.86,-24.03 936.32,20.26 -14.94,15.14 -107.69,370.66 22.17,460.89 131.26,91.11 451.4,82.31 483.26,82.31 v 0"
                 style="fill:#ffffff;fill-opacity:1;fill-rule:evenodd;stroke:none;stroke-width:65.9098;stroke-miterlimit:4;stroke-dasharray:none"
                 id="path14" />
              <path
                 d="m 2166.5,1256.35 c 0,0 -34.8,1.03 275.44,1.15 57.94,0 670.8,-922.531 723.71,-993.039 22.52,-29.941 -163.83,-99.539 -220.37,-97.031 -102.35,4.679 -373.03,267.32 -405.52,299.781 -32.54,32.578 49.72,-390.8594 26.44,-418.7501 C 2543.02,20.582 2166.5,0 2166.5,0 c 0,0 -376.37,20.582 -399.68,48.4609 -23.24,27.8907 59,451.3281 26.48,418.7501 -32.55,-32.461 -303.26,-295.102 -405.55,-299.781 -56.49,-2.508 -242.88,67.09 -220.4,97.031 52.91,70.508 664.95,993.949 722.92,993.039 276.23,0 276.23,-1.15 276.23,-1.15 v 0"
                 style="fill:#ffffff;fill-opacity:1;fill-rule:evenodd;stroke:none;stroke-width:65.9098;stroke-miterlimit:4;stroke-dasharray:none"
                 id="path16" />
            </g>
          </g>
        </g>
      </g>
    </g>
    <path
       id="path930"
       style="display:inline;fill:#003056;fill-opacity:1;stroke:none;stroke-width:2.7612"
       d="m 174.67787,38.099973 a 9.5782398,9.5782398 0 0 1 -9.57824,9.57824 9.5782398,9.5782398 0 0 1 -9.57824,-9.57824 9.5782398,9.5782398 0 0 1 9.57824,-9.57824 9.5782398,9.5782398 0 0 1 9.57824,9.57824 z" />
    <path
       id="path930-3"
       style="display:inline;fill:#003056;fill-opacity:1;stroke:none;stroke-width:2.7612"
       d="m 174.92903,291.90002 a 9.5782398,9.5782398 0 0 1 -9.57823,9.57825 9.5782398,9.5782398 0 0 1 -9.57825,-9.57825 9.5782398,9.5782398 0 0 1 9.57825,-9.57824 9.5782398,9.5782398 0 0 1 9.57823,9.57824 z" />
    <path
       id="path930-3-6"
       style="display:inline;fill:#003056;fill-opacity:1;stroke:none;stroke-width:2.7612"
       d="m 284.79386,228.4459 a 9.5782398,9.5782398 0 0 1 -9.57824,9.57824 9.5782398,9.5782398 0 0 1 -9.57824,-9.57824 9.5782398,9.5782398 0 0 1 9.57824,-9.57825 9.5782398,9.5782398 0 0 1 9.57824,9.57825 z" />
    <path
       id="path930-3-6-7"
       style="display:inline;fill:#003056;fill-opacity:1;stroke:none;stroke-width:2.7612"
       d="m 284.67247,101.70072 a 9.5782398,9.5782398 0 0 1 -9.57825,9.57824 9.5782398,9.5782398 0 0 1 -9.57824,-9.57824 9.5782398,9.5782398 0 0 1 9.57824,-9.578244 9.5782398,9.5782398 0 0 1 9.57825,9.578244 z" />
    <path
       id="path930-3-6-7-5"
       style="display:inline;fill:#003056;fill-opacity:1;stroke:none;stroke-width:2.7612"
       d="m 64.56492,101.25853 a 9.5782398,9.5782398 0 0 1 -9.578239,9.57823 9.5782398,9.5782398 0 0 1 -9.578239,-9.57823 9.5782398,9.5782398 0 0 1 9.578239,-9.578242 9.5782398,9.5782398 0 0 1 9.578239,9.578242 z" />
    <path
       id="path930-3-6-7-5-3"
       style="display:inline;fill:#003056;fill-opacity:1;stroke:none;stroke-width:2.7612"
       d="m 64.362616,228.50809 a 9.5782398,9.5782398 0 0 1 -9.57824,9.57824 9.5782398,9.5782398 0 0 1 -9.578239,-9.57824 9.5782398,9.5782398 0 0 1 9.578239,-9.57824 9.5782398,9.5782398 0 0 1 9.57824,9.57824 z" />
  </g>
</svg>
